<?xml version="1.0" encoding="UTF-8" standalone="no"?>
<!DOCTYPE svg PUBLIC "-//W3C//DTD SVG 20010904//EN"
              "http://www.w3.org/TR/2001/REC-SVG-20010904/DTD/svg10.dtd">

<svg xmlns="http://www.w3.org/2000/svg"
     width="105.82mm" height="105.82mm"
     viewBox="0 0 400 400">
  <path id="Sélection #1"
        fill="none" stroke="black" stroke-width="1"
        d="M 0.00,0.00
           C 0.00,0.00 0.00,400.00 0.00,400.00
             0.00,400.00 400.00,400.00 400.00,400.00
             400.00,400.00 400.00,0.00 400.00,0.00
             400.00,0.00 0.00,0.00 0.00,0.00 Z
           M 350.00,50.00
           C 350.00,50.00 350.00,320.00 350.00,320.00
             350.00,320.00 335.00,320.00 335.00,320.00
             335.00,320.00 335.00,335.00 335.00,335.00
             335.00,335.00 320.00,335.00 320.00,335.00
             320.00,335.00 320.00,350.00 320.00,350.00
             320.00,350.00 50.00,350.00 50.00,350.00
             50.00,350.00 50.00,80.00 50.00,80.00
             50.00,80.00 65.00,80.00 65.00,80.00
             65.00,80.00 65.00,65.00 65.00,65.00
             65.00,65.00 80.00,65.00 80.00,65.00
             80.00,65.00 80.00,50.00 80.00,50.00
             80.00,50.00 350.00,50.00 350.00,50.00 Z
           M 85.00,55.00
           C 85.00,55.00 85.00,65.00 85.00,65.00
             85.00,65.00 335.00,65.00 335.00,65.00
             335.00,65.00 335.00,315.00 335.00,315.00
             335.00,315.00 345.00,315.00 345.00,315.00
             345.00,315.00 345.00,55.00 345.00,55.00
             345.00,55.00 85.00,55.00 85.00,55.00 Z
           M 70.00,70.00
           C 70.00,70.00 70.00,80.00 70.00,80.00
             70.00,80.00 80.00,80.00 80.00,80.00
             80.00,80.00 80.00,70.00 80.00,70.00
             80.00,70.00 70.00,70.00 70.00,70.00 Z
           M 85.00,70.00
           C 85.00,70.00 85.00,80.00 85.00,80.00
             85.00,80.00 320.00,80.00 320.00,80.00
             320.00,80.00 320.00,315.00 320.00,315.00
             320.00,315.00 330.00,315.00 330.00,315.00
             330.00,315.00 330.00,70.00 330.00,70.00
             330.00,70.00 85.00,70.00 85.00,70.00 Z
           M 55.00,85.00
           C 55.00,85.00 55.00,345.00 55.00,345.00
             55.00,345.00 315.00,345.00 315.00,345.00
             315.00,345.00 315.00,335.00 315.00,335.00
             315.00,335.00 65.00,335.00 65.00,335.00
             65.00,335.00 65.00,85.00 65.00,85.00
             65.00,85.00 55.00,85.00 55.00,85.00 Z
           M 70.00,85.00
           C 70.00,85.00 70.00,330.00 70.00,330.00
             70.00,330.00 315.00,330.00 315.00,330.00
             315.00,330.00 315.00,320.00 315.00,320.00
             315.00,320.00 80.00,320.00 80.00,320.00
             80.00,320.00 80.00,85.00 80.00,85.00
             80.00,85.00 70.00,85.00 70.00,85.00 Z
           M 85.00,85.00
           C 85.00,85.00 85.00,315.00 85.00,315.00
             85.00,315.00 315.00,315.00 315.00,315.00
             315.00,315.00 315.00,85.00 315.00,85.00
             315.00,85.00 85.00,85.00 85.00,85.00 Z
           M 196.00,136.00
           C 196.00,136.00 196.00,155.00 196.00,155.00
             196.00,155.00 190.00,155.00 190.00,155.00
             190.00,155.00 190.00,147.00 190.00,147.00
             190.00,147.00 174.00,163.00 174.00,163.00
             174.00,163.00 169.00,159.00 169.00,159.00
             169.00,159.00 185.00,142.00 185.00,142.00
             185.00,142.00 176.00,142.00 176.00,142.00
             176.00,142.00 176.00,136.00 176.00,136.00
             176.00,136.00 196.00,136.00 196.00,136.00 Z
           M 234.00,136.00
           C 234.00,136.00 234.00,202.00 234.00,202.00
             234.00,202.00 228.00,202.00 228.00,202.00
             228.00,202.00 228.00,136.00 228.00,136.00
             228.00,136.00 234.00,136.00 234.00,136.00 Z
           M 223.88,147.00
           C 223.88,147.00 223.88,188.00 223.88,188.00
             223.77,200.50 225.01,201.72 217.00,202.00
             217.00,202.00 217.00,147.00 217.00,147.00
             217.00,147.00 223.88,147.00 223.88,147.00 Z
           M 206.00,202.00
           C 206.00,202.00 206.00,184.00 206.00,184.00
             206.00,184.00 206.00,164.00 206.00,164.00
             206.04,161.86 205.87,158.62 208.30,157.66
             212.58,155.95 212.95,161.34 213.00,164.00
             213.00,164.00 213.00,193.00 213.00,193.00
             213.00,194.99 213.23,198.81 211.98,200.40
             210.60,202.14 207.98,201.93 206.00,202.00 Z
           M 202.00,202.00
           C 202.00,202.00 195.00,202.00 195.00,202.00
             195.00,202.00 195.00,177.00 195.00,177.00
             195.00,174.54 194.49,169.77 197.30,168.66
             201.58,166.95 201.95,172.34 202.00,175.00
             202.00,175.00 202.00,202.00 202.00,202.00 Z
           M 191.00,179.00
           C 191.00,179.00 191.00,202.00 191.00,202.00
             189.02,201.93 186.40,202.14 185.02,200.40
             183.77,198.81 184.00,194.99 184.00,193.00
             183.98,180.57 183.11,179.28 191.00,179.00 Z
           M 180.00,190.00
           C 180.00,190.00 180.00,202.00 180.00,202.00
             180.00,202.00 174.00,202.00 174.00,202.00
             174.00,202.00 174.00,190.00 174.00,190.00
             174.00,190.00 180.00,190.00 180.00,190.00 Z
           M 179.00,243.00
           C 193.32,236.51 190.00,255.79 190.00,264.00
             190.00,264.00 181.00,264.00 181.00,264.00
             181.00,264.00 181.00,249.00 181.00,249.00
             181.00,249.00 179.00,249.00 179.00,249.00
             179.00,249.00 179.00,264.00 179.00,264.00
             179.00,264.00 171.00,264.00 171.00,264.00
             171.00,264.00 171.00,234.00 171.00,234.00
             179.14,234.11 178.97,235.20 179.00,243.00 Z
           M 202.00,242.00
           C 216.41,238.28 213.72,257.98 210.91,261.69
             208.44,264.95 198.20,263.93 194.00,264.00
             194.00,264.00 194.00,234.00 194.00,234.00
             201.39,234.10 201.90,234.61 202.00,242.00 Z
           M 296.00,234.00
           C 296.00,234.00 296.00,251.00 296.00,251.00
             296.00,251.00 297.00,264.00 297.00,264.00
             292.58,263.97 282.50,264.89 279.51,261.69
             275.58,257.48 274.45,238.91 288.00,242.00
             288.00,242.00 288.00,234.00 288.00,234.00
             288.00,234.00 296.00,234.00 296.00,234.00 Z
           M 107.00,264.00
           C 107.00,264.00 107.00,235.00 107.00,235.00
             112.23,235.00 119.47,234.31 123.79,237.70
             129.98,242.56 129.46,257.77 122.89,262.15
             119.13,264.65 111.53,264.00 107.00,264.00 Z
           M 150.00,264.00
           C 146.90,263.98 135.43,264.35 133.43,262.98
             132.06,262.04 131.47,260.58 131.27,258.98
             130.44,252.40 135.92,251.04 141.00,250.00
             141.00,250.00 133.00,250.00 133.00,250.00
             133.00,250.00 131.00,242.93 131.00,242.93
             135.31,241.75 142.61,239.55 146.49,242.93
             150.18,245.99 148.40,252.13 148.55,254.91
             148.72,258.02 149.82,257.70 150.00,264.00 Z
           M 167.00,242.00
           C 167.00,242.00 167.00,249.00 167.00,249.00
             167.00,249.00 160.00,248.00 160.00,248.00
             164.48,250.83 172.47,258.27 164.77,262.98
             162.42,264.42 155.93,264.00 153.00,264.00
             153.00,264.00 154.00,257.00 154.00,257.00
             154.00,257.00 161.00,258.00 161.00,258.00
             157.64,256.05 153.39,254.18 152.47,249.98
             150.40,240.48 161.19,240.96 167.00,242.00 Z
           M 229.00,241.00
           C 229.00,241.00 223.00,242.00 223.00,242.00
             223.00,242.00 229.00,241.00 229.00,241.00 Z
           M 250.00,262.00
           C 239.50,267.52 237.44,258.49 240.02,254.22
             241.65,251.53 245.19,250.85 248.00,250.00
             248.00,250.00 240.06,250.00 240.06,250.00
             239.79,248.25 239.11,245.11 240.06,243.51
             242.26,240.32 251.80,240.44 254.40,243.51
             256.55,245.90 255.84,249.94 256.05,252.99
             256.27,256.06 260.35,266.23 252.21,263.44
             250.76,262.94 250.64,262.47 250.00,262.00 Z
           M 275.00,241.00
           C 274.93,246.05 275.49,248.03 270.00,249.00
             270.00,249.00 270.00,264.00 270.00,264.00
             270.00,264.00 261.00,264.00 261.00,264.00
             261.00,264.00 261.00,242.00 261.00,242.00
             261.00,242.00 275.00,241.00 275.00,241.00 Z
           M 220.00,243.00
           C 220.00,243.00 220.00,244.00 220.00,244.00
             220.00,244.00 219.00,243.00 219.00,243.00
             219.00,243.00 220.00,243.00 220.00,243.00 Z
           M 233.00,243.00
           C 233.00,243.00 233.00,244.00 233.00,244.00
             233.00,244.00 232.00,243.00 232.00,243.00
             232.00,243.00 233.00,243.00 233.00,243.00 Z
           M 114.00,243.00
           C 114.00,243.00 114.00,257.00 114.00,257.00
             115.49,253.25 115.49,246.75 114.00,243.00 Z
           M 227.00,247.00
           C 228.22,251.30 228.22,254.70 227.00,259.00
             227.00,259.00 225.00,259.00 225.00,259.00
             223.82,254.86 223.82,251.14 225.00,247.00
             225.00,247.00 227.00,247.00 227.00,247.00 Z
           M 203.00,248.00
           C 203.00,248.00 202.00,258.00 202.00,258.00
             205.92,255.27 205.38,251.69 203.00,248.00 Z
           M 217.00,249.00
           C 217.00,249.00 217.00,256.00 217.00,256.00
             217.00,256.00 217.00,249.00 217.00,249.00 Z
           M 286.00,248.00
           C 285.00,252.15 284.10,255.28 288.00,258.00
             288.00,258.00 288.00,248.00 288.00,248.00
             288.00,248.00 286.00,248.00 286.00,248.00 Z
           M 236.00,250.00
           C 236.00,250.00 236.00,256.00 236.00,256.00
             236.00,256.00 236.00,250.00 236.00,250.00 Z
           M 248.00,255.00
           C 248.00,255.00 246.00,258.00 246.00,258.00
             248.12,257.17 248.52,257.33 248.00,255.00 Z
           M 219.00,260.00
           C 219.00,260.00 219.00,261.00 219.00,261.00
             219.00,261.00 218.00,260.00 218.00,260.00
             218.00,260.00 219.00,260.00 219.00,260.00 Z" />
</svg>
